<svg width="20" height="20" viewBox="0 0 20 20" fill="none" xmlns="http://www.w3.org/2000/svg">
<g clip-path="url(#clip0_1_1633)">
<path d="M10.365 1.73506C12.9394 1.73506 13.2442 1.74635 14.2567 1.79151C15.1976 1.83292 15.7057 1.99099 16.0444 2.12272C16.4923 2.29585 16.816 2.50662 17.1509 2.84158C17.4897 3.18032 17.6967 3.50023 17.8698 3.94811C18.0015 4.28684 18.1596 4.7987 18.201 5.73586C18.2462 6.75205 18.2575 7.05691 18.2575 9.62751C18.2575 12.2019 18.2462 12.5067 18.201 13.5192C18.1596 14.4601 18.0015 14.9682 17.8698 15.3069C17.6967 15.7548 17.4859 16.0785 17.1509 16.4134C16.8122 16.7522 16.4923 16.9592 16.0444 17.1323C15.7057 17.264 15.1938 17.4221 14.2567 17.4635C13.2405 17.5087 12.9356 17.52 10.365 17.52C7.79066 17.52 7.4858 17.5087 6.47337 17.4635C5.53244 17.4221 5.02435 17.264 4.68561 17.1323C4.23774 16.9592 3.91406 16.7484 3.57909 16.4134C3.24036 16.0747 3.03336 15.7548 2.86023 15.3069C2.7285 14.9682 2.57042 14.4563 2.52902 13.5192C2.48386 12.503 2.47257 12.1981 2.47257 9.62751C2.47257 7.05315 2.48386 6.74829 2.52902 5.73586C2.57042 4.79494 2.7285 4.28684 2.86023 3.94811C3.03336 3.50023 3.24412 3.17655 3.57909 2.84158C3.91782 2.50285 4.23774 2.29585 4.68561 2.12272C5.02435 1.99099 5.53621 1.83292 6.47337 1.79151C7.4858 1.74635 7.79066 1.73506 10.365 1.73506ZM10.365 0C7.74926 0 7.42181 0.0112911 6.39433 0.0564553C5.37061 0.10162 4.6668 0.267222 4.05708 0.504334C3.42102 0.752737 2.88281 1.08018 2.34837 1.61839C1.81016 2.15283 1.48272 2.69104 1.23431 3.32334C0.997202 3.93682 0.8316 4.63686 0.786436 5.66058C0.741272 6.69183 0.72998 7.01928 0.72998 9.63504C0.72998 12.2508 0.741272 12.5782 0.786436 13.6057C0.8316 14.6294 0.997202 15.3333 1.23431 15.943C1.48272 16.579 1.81016 17.1172 2.34837 17.6517C2.88281 18.1861 3.42102 18.5173 4.05332 18.762C4.6668 18.9991 5.36684 19.1647 6.39056 19.2099C7.41805 19.255 7.74549 19.2663 10.3613 19.2663C12.977 19.2663 13.3045 19.255 14.3319 19.2099C15.3557 19.1647 16.0595 18.9991 16.6692 18.762C17.3015 18.5173 17.8397 18.1861 18.3741 17.6517C18.9086 17.1172 19.2398 16.579 19.4844 15.9467C19.7215 15.3333 19.8871 14.6332 19.9323 13.6095C19.9775 12.582 19.9888 12.2546 19.9888 9.6388C19.9888 7.02304 19.9775 6.6956 19.9323 5.66811C19.8871 4.64439 19.7215 3.94058 19.4844 3.33086C19.2473 2.69104 18.9199 2.15283 18.3817 1.61839C17.8472 1.08394 17.309 0.752737 16.6767 0.508098C16.0632 0.270985 15.3632 0.105383 14.3395 0.060219C13.3082 0.0112911 12.9808 0 10.365 0Z" fill="#E5F4B8"/>
<path d="M10.365 4.68579C7.63258 4.68579 5.41577 6.9026 5.41577 9.63504C5.41577 12.3675 7.63258 14.5843 10.365 14.5843C13.0975 14.5843 15.3143 12.3675 15.3143 9.63504C15.3143 6.9026 13.0975 4.68579 10.365 4.68579ZM10.365 12.8455C8.59232 12.8455 7.15459 11.4077 7.15459 9.63504C7.15459 7.86234 8.59232 6.42461 10.365 6.42461C12.1377 6.42461 13.5754 7.86234 13.5754 9.63504C13.5754 11.4077 12.1377 12.8455 10.365 12.8455Z" fill="#E5F4B8"/>
<path d="M16.6654 4.48993C16.6654 5.12975 16.146 5.64538 15.5099 5.64538C14.8701 5.64538 14.3545 5.12599 14.3545 4.48993C14.3545 3.8501 14.8739 3.33447 15.5099 3.33447C16.146 3.33447 16.6654 3.85386 16.6654 4.48993Z" fill="#E5F4B8"/>
</g>
<defs>
<clipPath id="clip0_1_1633">
<rect width="19.2701" height="19.2701" fill="white" transform="translate(0.72998)"/>
</clipPath>
</defs>
</svg>
