<svg width="20" height="20" viewBox="0 0 20 20" fill="none" xmlns="http://www.w3.org/2000/svg">
<g clip-path="url(#clip0_1_1634)">
<path d="M17.8436 0H1.42267C0.636063 0 0 0.621008 0 1.3888V17.8775C0 18.6453 0.636063 19.2701 1.42267 19.2701H17.8436C18.6302 19.2701 19.2701 18.6453 19.2701 17.8813V1.3888C19.2701 0.621008 18.6302 0 17.8436 0ZM5.71704 16.421H2.85664V7.22251H5.71704V16.421ZM4.28684 5.96921C3.3685 5.96921 2.62705 5.22776 2.62705 4.31318C2.62705 3.39861 3.3685 2.65716 4.28684 2.65716C5.20141 2.65716 5.94286 3.39861 5.94286 4.31318C5.94286 5.224 5.20141 5.96921 4.28684 5.96921ZM16.421 16.421H13.5643V11.9497C13.5643 10.8846 13.5455 9.51083 12.0777 9.51083C10.591 9.51083 10.3652 10.6738 10.3652 11.8744V16.421H7.51232V7.22251H10.2523V8.47958H10.2899C10.67 7.75696 11.6034 6.99293 12.9922 6.99293C15.8865 6.99293 16.421 8.89735 16.421 11.3739V16.421Z" fill="#E5F4B8"/>
</g>
<defs>
<clipPath id="clip0_1_1634">
<rect width="19.2701" height="19.2701" fill="white"/>
</clipPath>
</defs>
</svg>
