<svg width="49" height="52" viewBox="0 0 49 52" fill="none" xmlns="http://www.w3.org/2000/svg">
<path d="M5 40C2.2 36 0.833333 30.3333 0.5 28V27H48C47.8333 28.6667 47 33.3 45 38.5C43 43.7 38.5 46.3333 36.5 47V50L36 51C28.3333 51.1667 12.9 51.4 12.5 51C12.1 50.6 12.3333 48.1667 12.5 47C11.1667 46.3333 7.8 44 5 40Z" fill="#F29EC2"/>
<path d="M5.00002 22.0001C3.40002 24.0001 3.33336 26.5001 3.50002 27.5001H46C45.5 26.0001 44.3 22.7 43.5 21.5C42.5 20 40.5 18.5001 37 18C34.2 17.5999 31.1667 19.1666 30 20L27.5 18.5001L26 16C25.3333 14.6667 22.8 11.9001 18 11.5001C13.2 11.1001 10.6667 16.0001 10 18.5001C9.00001 18.8335 6.60002 20.0001 5.00002 22.0001Z" fill="#FBF9F2"/>
<path d="M36.5 0.5L28.5 18L28 18.5L30 19.5L38.5 1.5L36.5 0.5Z" fill="#FFC42C"/>
<path d="M36.5 17.5L33 19L44 3L46.5 4L36.5 17.5Z" fill="#FFC42C"/>
<path d="M48.6813 26.611C48.4473 26.3543 48.1136 26.2067 47.7655 26.2067H46.3215C46.1784 24.4143 45.5297 22.7254 44.4233 21.2829C44.1666 20.9485 43.6866 20.8842 43.3501 21.1393C43.014 21.3948 42.9494 21.8728 43.2061 22.2073C44.1068 23.3816 44.6438 24.7515 44.783 26.2067H43.3369C42.9566 23.0218 40.2276 20.543 36.926 20.543C35.4744 20.543 34.0662 21.0361 32.9356 21.9193C32.676 21.5166 32.3862 21.1353 32.0696 20.7779C32.304 20.5954 32.548 20.4284 32.7992 20.2748C32.802 20.2728 32.8052 20.2717 32.808 20.2701C33.1158 20.082 33.4331 19.9166 33.7585 19.7738C33.7896 19.7603 33.821 19.7472 33.8521 19.7341C33.9339 19.6992 34.0164 19.6662 34.0989 19.6345C34.1528 19.6139 34.2066 19.5936 34.2608 19.5746C34.3023 19.5595 34.3437 19.5445 34.3856 19.5302C34.4701 19.5016 34.5554 19.4746 34.6407 19.4492C34.679 19.4377 34.7169 19.4262 34.7556 19.4155C34.8433 19.3905 34.9314 19.3671 35.0199 19.3449C35.059 19.3354 35.098 19.3266 35.1375 19.3175C35.2045 19.302 35.2719 19.2874 35.3392 19.2739C35.4018 19.2612 35.4644 19.2493 35.5274 19.2382C35.5844 19.2279 35.6418 19.2183 35.6997 19.2092C35.7527 19.2009 35.8057 19.1929 35.8591 19.1858C36.2104 19.1382 36.5668 19.1132 36.9264 19.1132C38.262 19.1132 39.5817 19.4508 40.7423 20.09C41.1122 20.2935 41.5779 20.1602 41.7828 19.792C41.9874 19.4238 41.8538 18.9605 41.4834 18.7565C40.2686 18.0877 38.9083 17.6949 37.5181 17.608L46.5739 5.14321C46.8007 4.83099 46.8904 4.44973 46.8266 4.06927C46.7624 3.6892 46.5523 3.35754 46.2358 3.13577C46.2354 3.13577 46.2354 3.13577 46.2354 3.13577L45.0943 2.33835C44.7774 2.11657 44.3922 2.03247 44.0115 2.1015C43.6303 2.17053 43.3002 2.38397 43.0818 2.70254L31.8691 19.0545C31.5545 19.254 31.2523 19.4746 30.9609 19.7123C30.9501 19.7039 30.9393 19.6952 30.9286 19.6865L39.3791 2.66128C39.5506 2.31573 39.5753 1.92456 39.4485 1.55996C39.3217 1.19577 39.0594 0.903776 38.7097 0.737547L37.4515 0.14047C37.1014 -0.0257587 36.7083 -0.0451984 36.3439 0.0861186C35.9795 0.217436 35.6893 0.48245 35.5274 0.832761L27.7128 17.7195C27.2479 15.8394 26.2017 14.1347 24.713 12.8568C23.0047 11.3905 20.8191 10.5824 18.5601 10.5824C16.3031 10.5824 14.1195 11.3889 12.4115 12.8528C10.8495 14.1918 9.77423 16.0017 9.34564 17.9905C5.70921 19.087 2.99535 22.3152 2.67959 26.2071H1.23474C0.88669 26.2071 0.552989 26.3543 0.319358 26.6114C0.0857275 26.8681 -0.0282971 27.2132 0.00599004 27.558C0.497173 32.4457 2.6449 41.4688 11.5009 47.1631V49.5807C11.5009 50.9145 12.5917 52 13.9325 52H35.0765C36.4173 52 37.5077 50.9145 37.5077 49.5807V47.1579C41.9355 44.3086 45.1761 40.3239 47.1408 35.3116C47.386 34.686 47.6124 34.0393 47.8142 33.3895C47.9764 32.8658 48.1263 32.3278 48.2595 31.7915C48.604 30.4057 48.8512 28.9814 48.9939 27.558C49.0286 27.2128 48.9145 26.8681 48.6813 26.611ZM44.2926 3.64001L45.2769 4.32794L35.5717 17.6858C35.5274 17.6921 35.4832 17.7009 35.4389 17.708C35.3723 17.7183 35.3058 17.7294 35.2396 17.7413C35.181 17.752 35.1228 17.7623 35.0646 17.7742C34.9609 17.7945 34.858 17.8167 34.7556 17.8409C34.7065 17.8524 34.6575 17.8647 34.6085 17.8774C34.577 17.8853 34.5455 17.8925 34.514 17.9008L44.2926 3.64001ZM36.9264 22.0668C39.3823 22.0668 41.4236 23.8644 41.7928 26.2067H40.3252C39.9752 24.6603 38.5846 23.5014 36.9264 23.5014C35.8105 23.5014 34.8162 24.0267 34.1779 24.8412C34.0543 24.3135 33.8844 23.7966 33.6679 23.2935C34.5634 22.5088 35.7256 22.0668 36.9264 22.0668ZM38.7229 26.2067H35.1295C35.4282 25.5128 36.1207 25.0249 36.926 25.0249C37.7318 25.0253 38.4247 25.5128 38.7229 26.2067ZM36.8786 1.55679L37.9638 2.07174L29.6528 18.8165C29.4526 18.703 29.2477 18.5963 29.0384 18.4971L36.8786 1.55679ZM27.7853 19.6214C27.8463 19.6444 27.9069 19.6678 27.9675 19.6924C27.9998 19.7055 28.0321 19.7198 28.0644 19.7333C28.1613 19.7742 28.257 19.8166 28.3519 19.861C28.3941 19.8809 28.436 19.9007 28.4778 19.9209C28.5269 19.9451 28.5755 19.9697 28.6238 19.9947C28.6748 20.0213 28.7254 20.0483 28.7757 20.0757C28.8291 20.1046 28.8821 20.1344 28.9351 20.1645C29.0017 20.203 29.0679 20.2419 29.1333 20.282C29.17 20.3046 29.2066 20.328 29.2429 20.351C29.2991 20.3867 29.3546 20.4236 29.4096 20.4605C29.4419 20.4823 29.4742 20.5033 29.5061 20.5256C30.6654 21.3317 31.5984 22.4394 32.1888 23.7335C32.1928 23.7426 32.1968 23.7514 32.2008 23.7605C32.5421 24.5162 32.7665 25.3351 32.8514 26.194C32.8518 26.1984 32.8522 26.2023 32.8526 26.2067H31.4058C31.0259 23.0218 28.2968 20.5426 24.9953 20.5426C23.2196 20.5426 21.5618 21.2559 20.3582 22.4969C20.1253 22.0708 19.8602 21.6606 19.5612 21.2718C21.0224 19.8924 22.9688 19.1128 24.9953 19.1128C25.9773 19.1128 26.9174 19.2941 27.7853 19.6214ZM24.9949 23.5014C23.3368 23.5014 21.9461 24.6607 21.5961 26.2071H21.4689C21.4685 26.2012 21.4677 26.1956 21.4673 26.19C21.4594 26.0944 21.4498 25.9992 21.439 25.9044C21.4358 25.8782 21.433 25.8516 21.4298 25.8251C21.4167 25.7207 21.4023 25.6168 21.3864 25.5132C21.3828 25.4902 21.3784 25.4672 21.3748 25.4442C21.3621 25.3668 21.3481 25.2899 21.3334 25.2133C21.333 25.2097 21.3322 25.2058 21.3314 25.2022C21.3294 25.1927 21.3278 25.1831 21.3258 25.1736C21.3214 25.1514 21.3174 25.1288 21.313 25.1066C21.2919 25.0038 21.2692 24.9023 21.2453 24.8011C21.2389 24.7741 21.2321 24.7475 21.2253 24.7206C21.2118 24.6658 21.1978 24.6115 21.1835 24.5571C21.1831 24.5559 21.1827 24.5543 21.1823 24.5531C21.1719 24.5139 21.1611 24.475 21.1504 24.4357C21.1468 24.4226 21.1432 24.4095 21.1392 24.396C21.1241 24.3437 21.1081 24.2909 21.0922 24.2389C21.0914 24.2366 21.0906 24.2346 21.0902 24.2322C21.077 24.1897 21.0635 24.1477 21.0499 24.1052C21.0447 24.0886 21.0399 24.0719 21.0347 24.0553C21.9633 22.804 23.4185 22.0668 24.9949 22.0668C27.4508 22.0668 29.4925 23.8648 29.8613 26.2071H28.3937C28.0441 24.6603 26.6534 23.5014 24.9949 23.5014ZM26.7918 26.2067H23.1984C23.497 25.5128 24.1896 25.0249 24.9953 25.0249C25.8007 25.0253 26.4932 25.5128 26.7918 26.2067ZM18.5597 18.0182C19.2295 18.0182 19.8399 18.363 20.1939 18.9006C19.5991 19.2509 19.0417 19.667 18.5326 20.1439C18.0394 19.6813 17.496 19.2707 16.9115 18.9216C17.2632 18.3717 17.8791 18.0182 18.5597 18.0182ZM15.5337 18.2436C15.0827 18.0658 14.6147 17.9222 14.1327 17.8151C14.9468 16.1588 16.6619 15.0598 18.5597 15.0598C20.4539 15.0598 22.167 16.1552 22.9827 17.8068C22.5031 17.9115 22.0331 18.0528 21.5774 18.2297C20.965 17.1776 19.8207 16.4944 18.5597 16.4944C17.2899 16.4944 16.1429 17.1831 15.5337 18.2436ZM13.4111 14.0073C14.8411 12.7814 16.6695 12.1062 18.5601 12.1062C20.4523 12.1062 22.2822 12.7826 23.7127 14.0109C24.8458 14.9833 25.6723 16.2508 26.106 17.6548C25.7416 17.612 25.3709 17.5894 24.9953 17.5894C24.851 17.5894 24.7071 17.5933 24.5635 17.5997C23.5999 15.1789 21.2158 13.5364 18.5601 13.5364C15.9028 13.5364 13.5191 15.1796 12.5555 17.6013C12.396 17.5933 12.2357 17.5894 12.0743 17.5894C11.7162 17.5894 11.3634 17.61 11.0157 17.6489C11.4507 16.2457 12.278 14.9789 13.4111 14.0073ZM12.0743 19.1128C15.1988 19.1128 17.9055 20.929 19.184 23.5562C19.1944 23.578 19.2044 23.6002 19.2143 23.622C19.2558 23.7089 19.2957 23.7962 19.3339 23.8843C19.3527 23.9287 19.3702 23.9731 19.3886 24.0176C19.4161 24.0846 19.4432 24.1521 19.4687 24.2199C19.4898 24.2762 19.5094 24.3326 19.5293 24.3893C19.5496 24.4468 19.5696 24.5043 19.5883 24.5627C19.609 24.6257 19.6278 24.6892 19.6469 24.7527C19.6625 24.8059 19.678 24.8594 19.6928 24.9134C19.7111 24.98 19.7283 25.0471 19.7446 25.1141C19.7574 25.1669 19.7697 25.22 19.7817 25.2736C19.7964 25.341 19.8108 25.4085 19.8239 25.4767C19.8347 25.5323 19.8447 25.5878 19.8542 25.6438C19.8654 25.7096 19.8766 25.7759 19.8861 25.8421C19.8953 25.904 19.9025 25.9663 19.9101 26.0286C19.9172 26.0877 19.9248 26.1472 19.9308 26.2071H18.4847C18.1048 23.0218 15.3758 20.543 12.0743 20.543C8.77272 20.543 6.04371 23.0218 5.66376 26.2071H4.21732C4.60365 22.2315 7.97934 19.1128 12.0743 19.1128ZM12.0743 23.5014C10.4157 23.5014 9.02509 24.6607 8.67544 26.2071H7.20788C7.57666 23.8648 9.61834 22.0668 12.0743 22.0668C14.5298 22.0668 16.5714 23.8648 16.9406 26.2071H15.4727C15.123 24.6603 13.7324 23.5014 12.0743 23.5014ZM13.8707 26.2067H10.2774C10.576 25.5128 11.2685 25.0249 12.0743 25.0249C12.8796 25.0249 13.5725 25.5128 13.8707 26.2067ZM46.7732 31.4253C46.6468 31.9343 46.5049 32.4437 46.351 32.94C46.1604 33.5549 45.9459 34.1667 45.7143 34.7578C43.8488 39.5173 40.7622 43.2878 36.5405 45.965C36.5397 45.9654 36.5317 45.9705 36.5142 45.9757C36.5002 45.98 36.4871 45.9824 36.4771 45.9824H18.3245C17.9015 45.9824 17.5586 46.3232 17.5586 46.7441C17.5586 47.1651 17.9015 47.5063 18.3245 47.5063H35.9767V49.5804C35.9767 50.0743 35.5729 50.4762 35.0765 50.4762H13.9325C13.4362 50.4762 13.0323 50.0743 13.0323 49.5804V47.5063H14.7618C15.1844 47.5063 15.5273 47.1651 15.5273 46.7441C15.5273 46.3232 15.1844 45.9824 14.7618 45.9824H12.5232C12.5124 45.9824 12.5001 45.9804 12.4869 45.9765C12.4725 45.9721 12.4642 45.9677 12.461 45.9654C4.22809 40.7448 2.09232 32.4349 1.56446 27.7305H47.4358C47.2967 28.9739 47.0738 30.2153 46.7732 31.4253Z" fill="black"/>
</svg>
